<?xml version="1.0" encoding="utf-8"?>
<!-- Generator: Adobe Illustrator 19.2.1, SVG Export Plug-In . SVG Version: 6.00 Build 0)  -->
<svg version="1.1" id="layer" xmlns="http://www.w3.org/2000/svg" xmlns:xlink="http://www.w3.org/1999/xlink" x="0px" y="0px"
	 viewBox="0 0 652 652" style="enable-background:new 0 0 652 652;" xml:space="preserve">
<style type="text/css">
	.st0{fill:#FFFFFE;}
	.st1{fill:#C30A14;}
</style>
<g>
	<path class="st0" d="M322,71C108.3,71-65,183-65,321c0,138.1,173.3,250,387,250c213.7,0,387-111.9,387-250C709,183,535.7,71,322,71
		"/>
	<path class="st0" d="M322,71C108.3,71-65,183-65,321c0,138.1,173.3,250,387,250c213.7,0,387-111.9,387-250C709,183,535.7,71,322,71
		"/>
	<path class="st1" d="M-36.9,321.2c0-123.8,160.9-224.2,359.5-224.2C521.1,97.1,682,197.4,682,321.2
		c0,123.8-160.9,224.2-359.4,224.2C124.1,545.4-36.9,445.1-36.9,321.2L-36.9,321.2z"/>
	<path class="st0" d="M504,456.7l-45.6-20.3V335.1L407,229.2l31.5-13.7l34.9,72l22.9-96.9l42.1-18l-34.4,152.6L504,456.7 M429,423.2
		l-88.8-39.6l0-125.8l41.9-18v126.6l46.8,18.5L429,423.2 M300.9,289.1l-30.2-9.7l0.1,26.8l29.9,5.3l0,20.1l-29.9,5.2l-0.1,24.1
		l30.2-11.4v31.8l-63.8,29.1l0-180.1l63.8,27.5L300.9,289.1 M214.3,420.8l-100.9,45.8V177l46.3,20.1l0.1,205.6l54.5-20.4
		L214.3,420.8"/>
</g>
</svg>
